<svg width="25" height="28" viewBox="0 0 25 28" fill="none" xmlns="http://www.w3.org/2000/svg">
<path fill-rule="evenodd" clip-rule="evenodd" d="M2.10298 0.295054C1.15323 0.590726 0.461601 1.26523 0.162741 2.18714C0.00357116 2.67796 0 2.90129 0 12.307C0 21.7127 0.00357116 21.9361 0.162741 22.4269C0.369719 23.0655 0.777749 23.6034 1.3193 23.9516C2.15119 24.4865 1.82141 24.4687 10.8935 24.4687C18.6314 24.4687 19.0743 24.4612 19.0726 24.3305C19.0717 24.2545 18.9275 23.7136 18.7524 23.1285C18.5772 22.5434 18.4456 22.0533 18.46 22.0393C18.4743 22.0253 18.8649 22.4033 19.3281 22.8793C19.7912 23.3553 20.6643 24.183 21.2681 24.7187C22.8182 26.0939 24.8323 27.8201 24.923 27.8513C24.9709 27.8677 24.9997 23.1635 24.9997 15.3311C24.9997 1.42672 25.0315 2.25814 24.4682 1.42893C24.1103 0.902033 23.5575 0.50504 22.9011 0.303662C22.3962 0.148719 22.1735 0.145402 12.471 0.149588C3.17715 0.153536 2.52838 0.162618 2.10298 0.295054ZM10.2923 6.81625C10.2788 6.8585 10.012 6.97553 9.69955 7.07622C8.94923 7.31819 7.77969 7.89295 7.22393 8.29286C6.71826 8.65685 6.73376 8.65471 7.79211 8.21437C8.86271 7.76904 9.95441 7.51104 11.2193 7.40459C13.4577 7.21632 15.3794 7.51428 17.3849 8.36054C17.7784 8.52662 18.1004 8.64658 18.1004 8.62715C18.1004 8.60773 17.79 8.3949 17.4106 8.15435C16.6588 7.67752 15.966 7.35049 15.2376 7.12866C14.2027 6.81348 15.2336 6.71192 16.378 7.01636C17.1016 7.2089 17.9858 7.6047 18.4947 7.96403C18.7801 8.16556 18.9166 8.35588 19.202 8.95007C20.1247 10.8711 20.7257 13.223 20.8988 15.5895L20.9511 16.3054L20.3466 16.8641C19.404 17.7352 18.2056 18.2312 17.0485 18.2289L16.5176 18.2278L16.0915 17.7213C15.8572 17.4428 15.6654 17.1945 15.6654 17.1696C15.6654 17.1447 15.7254 17.1243 15.7989 17.1243C16.1138 17.1243 17.1525 16.5424 17.6567 16.0834C17.9478 15.8185 18.1721 15.5883 18.1552 15.5719C18.1382 15.5554 17.8177 15.7006 17.4428 15.8946C16.0052 16.6382 14.285 17.0445 12.5713 17.045C10.9538 17.0456 9.39298 16.6739 7.80266 15.9096L7.05413 15.5498L7.22978 15.7898C7.5706 16.2555 8.90962 17.1243 9.28657 17.1243C9.52512 17.1243 9.47431 17.2557 9.03032 17.7877L8.57789 18.3298L8.00233 18.2855C6.80673 18.1935 5.70001 17.6863 4.80002 16.818L4.27787 16.3141L4.32819 15.357C4.38744 14.2293 4.59783 12.9908 4.94506 11.7248C5.34644 10.2614 6.16867 8.30487 6.48441 8.06164C7.16728 7.5356 8.45005 7.00641 9.48924 6.82185C10.166 6.70166 10.3293 6.70055 10.2923 6.81625ZM9.43462 11.8299C7.92595 12.1876 7.75948 14.2091 9.19079 14.7908C9.78575 15.0327 10.5127 14.8693 10.9727 14.39C11.2572 14.0938 11.3635 13.8062 11.3635 13.3336C11.3635 12.8602 11.2566 12.5721 10.9727 12.2802C10.5784 11.8746 9.98193 11.7 9.43462 11.8299ZM14.794 11.8342C13.7126 12.0712 13.2835 13.5472 14.0492 14.3957C14.9673 15.4131 16.5582 14.7522 16.5582 13.3533C16.5582 12.8607 16.4542 12.575 16.1675 12.2802C15.7845 11.8863 15.2895 11.7256 14.794 11.8342Z" fill="white"/>
</svg>
