<svg width="10" height="12" viewBox="0 0 10 12" fill="none" xmlns="http://www.w3.org/2000/svg">
<path fill-rule="evenodd" clip-rule="evenodd" d="M0.84119 0.518034C0.461292 0.636302 0.18464 0.906102 0.0650965 1.27487C0.00142846 1.47119 0 1.56053 0 5.32282C0 9.08511 0.00142846 9.17444 0.0650965 9.37076C0.147888 9.62622 0.3111 9.84137 0.52772 9.98065C0.860476 10.1946 0.728562 10.1875 4.35741 10.1875C7.45256 10.1875 7.62974 10.1845 7.62906 10.1322C7.62867 10.1018 7.571 9.88544 7.50094 9.6514C7.43088 9.41736 7.37825 9.22132 7.38399 9.21573C7.38971 9.21014 7.54597 9.36135 7.73123 9.55174C7.91649 9.74212 8.2657 10.0732 8.50726 10.2875C9.12728 10.8376 9.93292 11.5281 9.96922 11.5405C9.98834 11.5471 9.99987 9.66542 9.99987 6.53245C9.99987 0.970701 10.0126 1.30327 9.78727 0.971586C9.64413 0.760825 9.42299 0.602028 9.16043 0.521477C8.95849 0.4595 8.8694 0.458173 4.98841 0.459847C1.27086 0.461427 1.01135 0.46506 0.84119 0.518034ZM4.11693 3.12651C4.1115 3.14341 4.00482 3.19023 3.87982 3.2305C3.57969 3.32729 3.11187 3.55719 2.88957 3.71716C2.6873 3.86275 2.6935 3.8619 3.11684 3.68576C3.54508 3.50763 3.98177 3.40443 4.48773 3.36185C5.38308 3.28654 6.15177 3.40572 6.95397 3.74423C7.11137 3.81066 7.24016 3.85864 7.24016 3.85087C7.24016 3.8431 7.11601 3.75797 6.96423 3.66175C6.66352 3.47102 6.38641 3.34021 6.09505 3.25148C5.68106 3.12541 6.09343 3.08478 6.55118 3.20656C6.84066 3.28357 7.19432 3.44189 7.39789 3.58562C7.51204 3.66624 7.56665 3.74237 7.68081 3.98004C8.04986 4.74844 8.29028 5.68922 8.3595 6.63581L8.38044 6.92219L8.13866 7.14565C7.76162 7.4941 7.28224 7.69248 6.81939 7.69157L6.60706 7.69112L6.4366 7.48855C6.34287 7.37713 6.26615 7.27782 6.26615 7.26783C6.26615 7.25788 6.29018 7.24973 6.31956 7.24973C6.44553 7.24973 6.86098 7.01696 7.0627 6.83336C7.17913 6.72741 7.26883 6.63533 7.26208 6.62876C7.25529 6.62216 7.12708 6.68025 6.97712 6.75783C6.40209 7.05527 5.71398 7.2178 5.02854 7.21802C4.38153 7.21824 3.75719 7.06958 3.12106 6.76384L2.82165 6.61992L2.89191 6.71592C3.02824 6.90219 3.56385 7.24973 3.71463 7.24973C3.81005 7.24973 3.78972 7.3023 3.61213 7.51508L3.43116 7.73194L3.20093 7.71422C2.72269 7.67742 2.28 7.47452 1.92001 7.1272L1.71115 6.92566L1.73128 6.54281C1.75498 6.09172 1.83913 5.59631 1.97803 5.08991C2.13858 4.50457 2.46747 3.72196 2.59376 3.62467C2.86691 3.41425 3.38002 3.20258 3.7957 3.12875C4.06641 3.08068 4.13173 3.08023 4.11693 3.12651ZM3.77385 5.13196C3.17038 5.27505 3.10379 6.08363 3.67632 6.31635C3.9143 6.4131 4.20507 6.34772 4.3891 6.156C4.50286 6.03755 4.54539 5.9225 4.54539 5.73347C4.54539 5.5441 4.50264 5.42886 4.3891 5.31211C4.23134 5.14987 3.99277 5.08003 3.77385 5.13196ZM5.91758 5.1337C5.48506 5.22849 5.3134 5.81889 5.6197 6.15828C5.98693 6.56524 6.62329 6.3009 6.62329 5.74134C6.62329 5.54429 6.5817 5.43003 6.46699 5.31211C6.31378 5.15454 6.1158 5.09026 5.91758 5.1337Z" fill="white"/>
</svg>
