<svg width="38" height="42" viewBox="0 0 38 42" fill="none" xmlns="http://www.w3.org/2000/svg">
<path fill-rule="evenodd" clip-rule="evenodd" d="M3.6124 0.716677C2.20678 1.15427 1.18317 2.15253 0.740857 3.51697C0.505285 4.24337 0.5 4.5739 0.5 18.4944C0.5 32.4148 0.505285 32.7454 0.740857 33.4718C1.04718 34.417 1.65107 35.213 2.45257 35.7284C3.68376 36.5201 3.19568 36.4937 16.6224 36.4937C28.0745 36.4937 28.73 36.4826 28.7275 36.2891C28.7261 36.1767 28.5127 35.3761 28.2535 34.5101C27.9942 33.6442 27.7995 32.9188 27.8208 32.8981C27.8419 32.8775 28.4201 33.4369 29.1056 34.1414C29.791 34.8458 31.0831 36.0708 31.9769 36.8637C34.271 38.8989 37.2518 41.4538 37.3861 41.4999C37.4569 41.5242 37.4995 34.562 37.4995 22.97C37.4995 2.39154 37.5466 3.62204 36.7129 2.39482C36.1833 1.615 35.3651 1.02746 34.3936 0.729416C33.6464 0.5001 33.3168 0.495191 18.9571 0.501386C5.20218 0.50723 4.242 0.520671 3.6124 0.716677ZM15.7326 10.368C15.7126 10.4306 15.3178 10.6038 14.8553 10.7528C13.7449 11.1109 12.0139 11.9616 11.1914 12.5534C10.443 13.0921 10.466 13.089 12.0323 12.4373C13.6168 11.7782 15.2325 11.3963 17.1046 11.2388C20.4174 10.9601 23.2616 11.4011 26.2297 12.6536C26.8121 12.8994 27.2886 13.0769 27.2886 13.0482C27.2886 13.0194 26.8292 12.7044 26.2676 12.3484C25.155 11.6427 24.1297 11.1587 23.0517 10.8304C21.5199 10.3639 23.0457 10.2136 24.7394 10.6642C25.8104 10.9492 27.119 11.535 27.8722 12.0668C28.2946 12.365 28.4966 12.6467 28.919 13.5261C30.2845 16.3692 31.174 19.8501 31.4302 23.3524L31.5076 24.4121L30.613 25.2388C29.218 26.5281 27.4443 27.2621 25.7317 27.2587L24.9461 27.2571L24.3154 26.5076C23.9686 26.0953 23.6848 25.7279 23.6848 25.6909C23.6848 25.6541 23.7737 25.624 23.8824 25.624C24.3485 25.624 25.8856 24.7627 26.632 24.0834C27.0628 23.6914 27.3947 23.3507 27.3697 23.3264C27.3446 23.3019 26.8702 23.5169 26.3153 23.8039C24.1877 24.9045 21.6417 25.5058 19.1056 25.5066C16.7117 25.5074 14.4016 24.9574 12.0479 23.8261L10.9401 23.2936L11.2001 23.6488C11.7045 24.3381 13.6862 25.624 14.2441 25.624C14.5972 25.624 14.522 25.8185 13.8649 26.6057L13.1953 27.4081L12.3434 27.3426C10.574 27.2064 8.93601 26.4557 7.60403 25.1706L6.83124 24.4249L6.90572 23.0083C6.99342 21.3393 7.30479 19.5063 7.8187 17.6326C8.41273 15.4669 9.62963 12.5712 10.0969 12.2112C11.1076 11.4327 13.0061 10.6495 14.5441 10.3763C15.5457 10.1985 15.7874 10.1968 15.7326 10.368ZM14.4632 17.7882C12.2304 18.3177 11.984 21.3094 14.1024 22.1704C14.9829 22.5284 16.0588 22.2865 16.7397 21.5772C17.1606 21.1389 17.318 20.7132 17.318 20.0138C17.318 19.3131 17.1598 18.8867 16.7397 18.4548C16.156 17.8545 15.2733 17.596 14.4632 17.7882ZM22.3951 17.7946C20.7947 18.1454 20.1596 20.3298 21.2929 21.5856C22.6517 23.0913 25.0062 22.1133 25.0062 20.0429C25.0062 19.3138 24.8523 18.8911 24.4279 18.4548C23.861 17.8718 23.1284 17.6339 22.3951 17.7946Z" fill="white"/>
</svg>
